<?xml version="1.0" standalone="no"?>
<!DOCTYPE svg PUBLIC "-//W3C//DTD SVG 20010904//EN"
 "http://www.w3.org/TR/2001/REC-SVG-20010904/DTD/svg10.dtd">
<svg version="1.0" xmlns="http://www.w3.org/2000/svg"
 width="64.000000pt" height="64.000000pt" viewBox="0 0 64.000000 64.000000"
 preserveAspectRatio="xMidYMid meet">

<g transform="translate(0.000000,64.000000) scale(0.100000,-0.100000)"
fill="#000000" stroke="none">
<path d="M263 571 c-178 -45 -255 -252 -150 -404 76 -110 251 -136 360 -53
147 112 132 340 -29 428 -54 29 -131 41 -181 29z m183 -47 c30 -18 60 -48 79
-78 27 -44 30 -58 30 -126 0 -68 -3 -82 -30 -126 -19 -30 -49 -60 -79 -79 -44
-27 -58 -30 -126 -30 -68 0 -82 3 -126 30 -159 99 -150 335 18 419 74 38 163
34 234 -10z"/>
<path d="M256 528 c-61 -17 -130 -91 -146 -156 -19 -79 0 -143 60 -202 89 -90
211 -90 300 0 159 158 3 418 -214 358z m152 -27 c154 -79 148 -300 -10 -366
-21 -8 -56 -15 -78 -15 -213 0 -276 283 -85 383 42 23 127 21 173 -2z"/>
</g>
</svg>
